<svg width="596" height="200" viewBox="0 0 596 200" fill="none" xmlns="http://www.w3.org/2000/svg">
<g clip-path="url(#clip0_3450_9686)">
<g clip-path="url(#clip1_3450_9686)">
<path d="M159.732 47.9949C131.464 47.9949 110.397 57.3286 98.1299 73.8625V0H0V194.666H119.157C129.611 198.127 141.731 200 155.465 200C209.6 200 239.201 170.399 239.201 126.131V121.864C239.201 77.5959 209.6 47.9949 159.732 47.9949ZM119.731 107.997C134.931 107.997 141.065 113.864 141.065 123.997C141.065 134.131 134.931 139.998 119.731 139.998C104.53 139.998 98.1299 133.864 98.1299 123.997C98.1299 114.13 104.263 107.997 119.731 107.997Z" fill="black"/>
<path d="M245.455 121.864C245.455 81.0624 278.522 47.9946 363.859 47.9946C449.195 47.9946 476.129 75.9956 482.529 116.53H383.059C380.926 111.197 376.126 107.197 363.859 107.197C349.725 107.197 343.324 113.33 343.324 123.997C343.324 134.664 349.725 140.798 363.859 140.798C376.126 140.798 380.926 136.798 383.059 131.464H482.796C476.396 171.999 447.061 200 363.859 200C280.656 200 245.455 166.932 245.455 126.131V121.864Z" fill="black"/>
<path d="M483.685 166.667H597.018V193.333H483.685V166.667Z" fill="black"/>
</g>
</g>
<defs>
<clipPath id="clip0_3450_9686">
<rect width="596" height="200" fill="white"/>
</clipPath>
<clipPath id="clip1_3450_9686">
<rect width="595.807" height="200" fill="white"/>
</clipPath>
</defs>
</svg>
